<svg version="1.1" id="Layer_1" xmlns="http://www.w3.org/2000/svg" xmlns:xlink="http://www.w3.org/1999/xlink" x="0px" y="0px"
	 width="100%" viewBox="0 0 294 294" enable-background="new 0 0 294 294" xml:space="preserve">
<path fill="#F2F2F2" opacity="1.000000" stroke="none" 
	d="
M0.999999,167.000000 
	C1.000000,154.645767 1.000000,142.291550 1.375376,129.384003 
	C2.981069,123.615387 4.099576,118.370720 5.460221,113.189644 
	C13.114745,84.042679 27.755999,59.196640 50.380848,39.019131 
	C72.711258,19.104210 98.559242,7.148828 128.106094,2.928174 
	C129.141418,2.780285 130.038498,1.664608 131.000000,1.000000 
	C141.687561,1.000000 152.375122,1.000000 163.622177,1.382361 
	C166.342621,2.218754 168.496277,2.711407 170.665619,3.121031 
	C204.045959,9.424057 232.824097,23.910818 256.022552,49.334564 
	C276.115753,71.355179 288.247925,96.873985 293.065125,126.110626 
	C293.236664,127.151749 294.334106,128.040329 295.000000,129.000000 
	C295.000000,141.354233 295.000000,153.708450 294.620636,166.619598 
	C293.787415,169.002457 293.245026,170.811508 292.892822,172.656845 
	C286.115692,208.163208 269.415344,237.794907 241.513107,261.136810 
	C221.138062,278.181793 197.871033,288.444244 171.891953,293.063782 
	C170.846268,293.249725 169.960358,294.334198 169.000000,295.000000 
	C155.312439,295.000000 141.624878,295.000000 127.383522,294.625000 
	C126.168480,293.844147 125.547127,293.178497 124.840218,293.069946 
	C97.412956,288.857635 72.964516,277.734375 52.257893,259.502319 
	C25.075056,235.567993 8.007546,205.661545 2.908569,169.396942 
	C2.786072,168.525726 1.658686,167.795822 0.999999,167.000000 
M67.400444,229.489212 
	C67.617226,229.875122 67.834000,230.261017 68.939850,230.938690 
	C80.255722,230.952042 91.571655,230.993484 102.887466,230.972961 
	C127.178864,230.928894 151.470215,230.852875 176.727295,230.932312 
	C193.594376,230.932312 210.461456,230.932312 228.496201,230.932312 
	C209.434814,211.873993 191.254288,193.696396 172.428009,174.873138 
	C177.114914,174.350159 180.923080,174.242828 184.589355,173.465881 
	C213.872574,167.260239 231.772339,141.773514 228.001984,111.838997 
	C223.426254,75.510262 179.760086,53.785206 148.028122,72.243225 
	C147.712143,72.139885 147.380127,72.070206 147.082458,71.928429 
	C109.123192,53.849411 68.353737,78.318344 67.558823,120.186966 
	C66.923721,153.638367 67.328270,187.109680 67.298836,220.572174 
	C67.296356,223.389191 67.502434,226.206421 67.400444,229.489212 
z"/>
<path fill="#FFFFFF" opacity="1.000000" stroke="none" 
	d="
M295.000000,128.531342 
	C294.334106,128.040329 293.236664,127.151749 293.065125,126.110626 
	C288.247925,96.873985 276.115753,71.355179 256.022552,49.334564 
	C232.824097,23.910818 204.045959,9.424057 170.665619,3.121031 
	C168.496277,2.711407 166.342621,2.218754 164.090836,1.382361 
	C207.592789,1.000000 251.185593,1.000000 295.000000,1.000000 
	C295.000000,43.353970 295.000000,85.708328 295.000000,128.531342 
z"/>
<path fill="#FFFFFF" opacity="1.000000" stroke="none" 
	d="
M130.531342,1.000000 
	C130.038498,1.664608 129.141418,2.780285 128.106094,2.928174 
	C98.559242,7.148828 72.711258,19.104210 50.380848,39.019131 
	C27.755999,59.196640 13.114745,84.042679 5.460221,113.189644 
	C4.099576,118.370720 2.981069,123.615387 1.375376,128.915344 
	C1.000000,86.405785 1.000000,43.811569 1.000000,1.000000 
	C44.020649,1.000000 87.041664,1.000000 130.531342,1.000000 
z"/>
<path fill="#FFFFFF" opacity="1.000000" stroke="none" 
	d="
M0.999999,167.468658 
	C1.658686,167.795822 2.786072,168.525726 2.908569,169.396942 
	C8.007546,205.661545 25.075056,235.567993 52.257893,259.502319 
	C72.964516,277.734375 97.412956,288.857635 124.840218,293.069946 
	C125.547127,293.178497 126.168480,293.844147 126.914864,294.625000 
	C85.072456,295.000000 43.144905,295.000000 1.000000,295.000000 
	C1.000000,252.646027 1.000000,210.291672 0.999999,167.468658 
z"/>
<path fill="#FFFFFF" opacity="1.000000" stroke="none" 
	d="
M169.468658,295.000000 
	C169.960358,294.334198 170.846268,293.249725 171.891953,293.063782 
	C197.871033,288.444244 221.138062,278.181793 241.513107,261.136810 
	C269.415344,237.794907 286.115692,208.163208 292.892822,172.656845 
	C293.245026,170.811508 293.787415,169.002457 294.620636,167.088257 
	C295.000000,209.593063 295.000000,252.186111 295.000000,295.000000 
	C253.312698,295.000000 211.625015,295.000000 169.468658,295.000000 
z"/>
<path fill="#145DA0" opacity="1.000000" stroke="none" 
	d="
M175.761581,230.789917 
	C151.470215,230.852875 127.178864,230.928894 102.887466,230.972961 
	C91.571655,230.993484 80.255722,230.952042 68.582443,230.614807 
	C68.020561,229.868469 67.816086,229.445999 67.611618,229.023544 
	C67.502434,226.206421 67.296356,223.389191 67.298836,220.572174 
	C67.328270,187.109680 66.923721,153.638367 67.558823,120.186966 
	C68.353737,78.318344 109.123192,53.849411 147.082458,71.928429 
	C147.380127,72.070206 147.712143,72.139885 148.620789,72.563385 
	C149.618851,73.174217 150.015274,73.478447 150.430939,73.753593 
	C171.110840,87.442741 180.122543,110.151367 174.434479,133.444855 
	C169.306961,154.442780 149.917374,172.995193 125.298203,174.210434 
	C123.968842,174.276062 122.663849,174.835297 119.939232,175.517227 
	C122.430191,177.607956 124.056076,178.773911 125.449005,180.171982 
	C142.239838,197.024719 158.996216,213.911804 175.761581,230.789917 
z"/>
<path fill="#38B6FF" opacity="1.000000" stroke="none" 
	d="
M176.244446,230.861115 
	C158.996216,213.911804 142.239838,197.024719 125.449005,180.171982 
	C124.056076,178.773911 122.430191,177.607956 119.939232,175.517227 
	C122.663849,174.835297 123.968842,174.276062 125.298203,174.210434 
	C149.917374,172.995193 169.306961,154.442780 174.434479,133.444855 
	C180.122543,110.151367 171.110840,87.442741 150.430939,73.753593 
	C150.015274,73.478447 149.618851,73.174217 148.980972,72.645935 
	C179.760086,53.785206 223.426254,75.510262 228.001984,111.838997 
	C231.772339,141.773514 213.872574,167.260239 184.589355,173.465881 
	C180.923080,174.242828 177.114914,174.350159 172.428009,174.873138 
	C191.254288,193.696396 209.434814,211.873993 228.496201,230.932312 
	C210.461456,230.932312 193.594376,230.932312 176.244446,230.861115 
z"/>
<path fill="#06539A" opacity="1.000000" stroke="none" 
	d="
M67.506027,229.256378 
	C67.816086,229.445999 68.020561,229.868469 68.137909,230.468933 
	C67.834000,230.261017 67.617226,229.875122 67.506027,229.256378 
z"/>
</svg>